<svg id="Capa_1" data-name="Capa 1" xmlns="http://www.w3.org/2000/svg" viewBox="0 0 1257.7 229.72"><defs><style>.cls-1{fill:#009bdb;}.cls-2{fill:#ba007c;}.cls-3,.cls-5{fill:none;stroke-miterlimit:10;stroke-width:13px;}.cls-3{stroke:#76aadb;}.cls-4{fill:#f7ec45;}.cls-5{stroke:#cb6120;}</style></defs><title>graphic</title><path class="cls-1" d="M-6.53,38.69C21.74,22.43,49.81,5.78,78.35-10c13.2-7.29,26.7-14.16,40.91-19.27,6-2.15,12.38-4.72,18.8-4.94,7.75-.27,15,4.52,8.44,12.49-4.26,5.16-10.55,9.14-15.84,13.14C124.91-4.23,119.07,0,113.22,4.22,102.71,11.79,92.18,19.33,82,27.4a228.92,228.92,0,0,0-30,28c-6.49,7.41-14.06,16.39-13.52,27s11.11,14.19,19.79,9.88c5.49-2.72,9.82-7.31,14.2-11.48C77.61,75.88,82.72,71,87.86,66.09c19.61-18.65,39.49-37.18,61.26-53.32C170.41-3,193.62-16.56,219-24.61a89.79,89.79,0,0,1,9.13-2.62c2.43-.49,6.63-1.26,7.18,3,.25,1.94-1.1,4.17-2,5.81A78,78,0,0,1,221-2.06c-8.58,9.14-18.57,16.8-28.55,24.34-10.89,8.23-24,16.41-32.26,27.41-6.06,8-5.31,23.14,7.58,22.88,6.33-.12,12.77-3.9,18-7.1,6-3.68,11.63-8,17.65-11.67a57.74,57.74,0,0,1,10-5.06,18.31,18.31,0,0,1,4.24-1.33c3.88-.37,3.57,1.05,3.08,4.34-1.3,8.62-3,17.21-4.54,25.8a2.54,2.54,0,0,0,3.67,2.82l38.73-16.89c3-1.3,9.61-4.51,9.62,1,0,2.65-1,5.1-2,7.51-2.61,6.63-5.27,13.24-7.91,19.86-.54,1.36.61,2.61,1.75,3.07,12.77,5.25,24.55-4.91,33.64-12.74C304.07,73.29,315.4,66.32,328.38,62c25.72-8.49,54.48-6.78,78.54,5.88,2.84,1.5,5.37-2.82,2.52-4.32-23-12.11-50.12-14.86-75.29-8.46a102.34,102.34,0,0,0-35.23,16.42C288.64,79.09,275.81,96,261.45,90.09l1.74,3.08c3.21-8.06,7.88-16.56,9.65-25.06.92-4.46.53-10.33-4.5-12-3.32-1.13-6.53.61-9.52,1.91q-6.76,2.92-13.51,5.89L217.39,76.05l3.67,2.83,4.05-23c.72-4,2.83-10.55-1.78-13.15-4.15-2.34-10.66.86-14.52,2.59-5.94,2.66-11.31,6.36-16.66,10-5.17,3.55-10.37,7.16-16.09,9.78-3.47,1.59-8.16,3.68-11.75,1.57-3.93-2.31-3.68-7.68-1.81-11.31,3.1-6,9.58-10.69,14.71-14.93S187.78,32.05,193.16,28c10.14-7.64,20.38-15.29,29.32-24.34a102.63,102.63,0,0,0,11.94-14.38c2.9-4.26,6.74-9.73,5.71-15.2-2.36-12.63-21.66-3.91-28.57-1.45a220.17,220.17,0,0,0-36.09,16.77C152.05,2.86,130.89,20,110.82,37.94c-10.4,9.32-20.54,18.94-30.65,28.58C75.05,71.4,70,76.31,64.81,81.15c-4.42,4.16-14.84,13-20.13,5.14-3.21-4.77,0-12.16,2.48-16.49,3.48-6,8.6-11.3,13.37-16.3A267.89,267.89,0,0,1,92.92,25.24C104,16.85,115.35,8.92,126.52.7c5.52-4.06,11-8.19,16.35-12.47,4.44-3.54,9.67-7.55,11-13.4,2.46-10.54-8.64-14.61-17.09-14-13.3,1-27,7.82-38.92,13.43C68.48-11.85,40.67,5.77,12.51,22L-9.06,34.37c-2.78,1.61-.27,5.93,2.53,4.32Z" transform="translate(10.27 76.03)"/><path class="cls-2" d="M1050.22,120A769.72,769.72,0,0,1,1167.6-27.56c2.3-2.26-1.23-5.79-3.53-3.54A775.28,775.28,0,0,0,1045.9,117.45c-1.68,2.75,2.64,5.27,4.32,2.52Z" transform="translate(10.27 76.03)"/><path class="cls-2" d="M1197.11-30.68q-37.45,53.25-76.54,105.35c-1.93,2.57,2.41,5.07,4.32,2.52Q1164,25.11,1201.43-28.16c1.86-2.64-2.48-5.14-4.32-2.52Z" transform="translate(10.27 76.03)"/><path class="cls-2" d="M1230.45-20.51Q1182,60.65,1141,145.91c-1.39,2.89,2.92,5.43,4.32,2.53q41-85.17,89.44-166.42c1.65-2.77-2.67-5.29-4.32-2.53Z" transform="translate(10.27 76.03)"/><path class="cls-2" d="M1242.77,37.62a722.21,722.21,0,0,0-51.76,113c-1.08,3,3.75,4.34,4.82,1.33a714.39,714.39,0,0,1,51.26-111.83c1.58-2.81-2.73-5.33-4.32-2.53Z" transform="translate(10.27 76.03)"/><circle class="cls-3" cx="1098.29" cy="131.18" r="55.15"/><circle class="cls-4" cx="155.56" cy="120.72" r="38.4"/><line class="cls-5" x1="606.67" y1="53.46" x2="762.12" y2="208.91"/><line class="cls-5" x1="509.77" y1="4.6" x2="665.22" y2="160.05"/><line class="cls-5" x1="606.67" y1="4.6" x2="762.12" y2="160.05"/></svg>